<?xml version="1.0" encoding="utf-8"?>
<!-- Generator: Adobe Illustrator 17.1.0, SVG Export Plug-In . SVG Version: 6.00 Build 0)  -->
<!DOCTYPE svg PUBLIC "-//W3C//DTD SVG 1.1//EN" "http://www.w3.org/Graphics/SVG/1.1/DTD/svg11.dtd">
<svg version="1.1" id="Layer_1" xmlns="http://www.w3.org/2000/svg" xmlns:xlink="http://www.w3.org/1999/xlink" x="0px" y="0px"
	 viewBox="0 0 512 512" enable-background="new 0 0 512 512" xml:space="preserve">
<g id="m_gift" display="none">
	<rect x="50.731" y="319.16" display="inline" width="189.479" height="189.479"/>
	<rect x="271.79" y="319.16" display="inline" width="189.479" height="189.479"/>
	<path display="inline" d="M303.37,161.26v-1.91c46.043-4.627,126.32-20.663,126.32-77.04c0-39.475-39.475-78.95-78.95-78.95
		c-35.714,0-71.301,32.506-77.794,126.32h-1.156h-31.58h-1.156c-6.493-93.814-42.08-126.32-77.794-126.32
		c-39.475,0-78.95,39.475-78.95,78.95c0,56.377,80.276,72.413,126.32,77.04v1.91H19.151v126.32H240.21V161.26h31.58v126.32h221.059
		V161.26H303.37z M113.89,82.311c0-22.143,25.226-47.37,47.37-47.37c24.3,0,41.385,35.405,46.075,92.703
		C164.282,122.711,113.89,108.526,113.89,82.311z M350.74,34.941c22.143,0,47.37,25.227,47.37,47.37
		c0,26.029-50.392,40.278-93.445,45.274C309.382,70.346,326.439,34.941,350.74,34.941z"/>
</g>
<g id="m_gift_1_">
	<path fill="#0AE50A" d="M328.561,276.389c-6.071-3.721-13.102-5.581-21.096-5.581c-7.723,0-14.842,1.723-21.358,5.167
		c-6.515,3.446-12.013,8.474-16.494,15.088c-3.449-6.614-7.998-11.642-13.652-15.088c-5.654-3.444-11.998-5.167-19.029-5.167
		c-6.963,0-13.394,1.309-19.287,3.928c-5.896,2.618-11.257,6.58-16.082,11.884v-12.917h-28.212V386.14h28.212v-50.018
		c0-10.816,0.95-18.739,2.849-23.769c1.898-5.028,4.764-8.941,8.596-11.73c3.833-2.79,8.098-4.185,12.794-4.185
		c4.212,0,7.804,1.102,10.774,3.307c2.97,2.206,5.196,5.564,6.682,10.077c1.484,4.513,2.227,11.798,2.227,21.856v54.462h28.419
		v-50.742c0-10.748,0.933-18.549,2.791-23.408c1.859-4.857,4.701-8.662,8.527-11.418c3.823-2.756,8.147-4.134,12.97-4.134
		c6.336,0,11.091,2.257,14.259,6.77c3.168,4.513,4.755,13.141,4.755,25.887v57.045h28.416v-65.933
		c0-13.502-1.323-23.252-3.982-29.247C338.987,284.967,334.625,280.11,328.561,276.389z"/>
	<path fill="#FFFFFF" d="M303.207,161.587v-1.903c45.885-4.611,125.884-20.591,125.884-76.774c0-39.339-39.339-78.678-78.678-78.678
		c-35.591,0-71.056,32.394-77.526,125.884h-1.151h-31.471h-1.152c-6.47-93.49-41.935-125.884-77.525-125.884
		c-39.339,0-78.678,39.339-78.678,78.678c0,56.183,79.999,72.163,125.884,76.774v1.903H19.967v125.884h49.036l-0.01,220.297h374.012
		l-0.128-220.297h49.155V161.587H303.207z M350.413,35.703c22.067,0,47.207,25.14,47.207,47.207
		c0,25.939-50.219,40.139-93.123,45.118C309.198,70.986,326.196,35.703,350.413,35.703z M114.38,82.909
		c0-22.067,25.139-47.207,47.207-47.207c24.217,0,41.242,35.283,45.916,92.384C164.598,123.171,114.38,109.034,114.38,82.909z
		 M256,474.31c-78.356,0-141.876-63.52-141.876-141.876S177.644,190.557,256,190.557s141.876,63.52,141.876,141.876
		S334.356,474.31,256,474.31z"/>
</g>
<g display="none">
	<path display="inline" fill="#FFFFFF" d="M372.797,113.248c0-18.199-20.733-38.932-38.932-38.932
		c-19.973,0-33.991,29.099-37.868,76.142C331.381,146.352,372.797,134.641,372.797,113.248z"/>
	<path display="inline" fill="#FFFFFF" d="M178.135,74.316c-18.2,0-38.932,20.733-38.932,38.932c0,21.546,41.416,33.205,76.8,37.259
		C212.149,103.414,198.107,74.316,178.135,74.316z"/>
	<path display="inline" fill="#FFFFFF" d="M-4-4v520h520V-4H-4z M243,464H87V308h156V464z M425,464H269V308h156V464z M451,282H269
		V178h-26v104H61V178h156v-1.434c-38-3.803-103.786-16.982-103.786-63.318c0-32.444,32.461-64.977,64.904-64.977
		c29.352,0,58.618,26.729,63.954,103.729h0.95h25.955h0.95c5.336-77,34.585-103.729,63.938-103.729
		c32.444,0,64.921,32.489,64.921,64.932c0,46.335-65.786,59.56-103.786,63.363V178h156V282z"/>
</g>
<g display="none">
	<path display="inline" fill="#FFFFFF" d="M352.458,128.107c0-15.03-17.123-32.153-32.153-32.153
		c-16.494,0-28.072,24.031-31.274,62.882C318.253,155.446,352.458,145.775,352.458,128.107z"/>
	<path display="inline" fill="#FFFFFF" d="M191.695,95.955c-15.03,0-32.153,17.123-32.153,32.153
		c0,17.794,34.204,27.422,63.426,30.77C219.785,119.986,208.189,95.955,191.695,95.955z"/>
	<path display="inline" fill="#FFFFFF" d="M256,1C115.167,1,1,115.167,1,256s114.167,255,255,255s255-114.167,255-255
		S396.833,1,256,1z M245,417H117V289h128V417z M395,417H267V289h128V417z M417,267H267v-85h-22v85H95v-85h129v-1.601
		c-31-3.141-85.816-14.025-85.816-52.291c0-26.794,26.756-53.717,53.549-53.717c24.241,0,48.358,22.61,52.765,85.61h0.785h21.435
		h0.784c4.407-63,28.562-85.61,52.803-85.61c26.794,0,53.511,26.859,53.511,53.653c0,38.266-54.816,49.215-85.816,52.356V182h129
		V267z"/>
</g>
<g id="m_gift_2_" display="none">
	<g display="inline">
		<path fill="#FFFFFF" d="M196.387,106.903c-13.934,0-29.807,15.873-29.807,29.807c0,16.495,31.708,25.421,58.798,28.525
			C222.428,129.181,211.677,106.903,196.387,106.903z"/>
		<path fill="#FFFFFF" d="M345.42,136.709c0-13.933-15.873-29.807-29.807-29.807c-15.291,0-26.023,22.278-28.992,58.294
			C313.711,162.053,345.42,153.087,345.42,136.709z"/>
		<path fill="#FFFFFF" d="M256,1C115.167,1,1,115.167,1,256s114.167,255,255,255s255-114.167,255-255S396.833,1,256,1z M405,266
			h-31.004l0.081,139H137.923l0.006-139H107v-80h119v-0.815c-29-2.911-79.387-13.002-79.387-48.476
			c0-24.839,24.887-49.436,49.726-49.436c22.472,0,44.913,19.726,48.998,79.726h0.727h19.871h0.727
			c4.086-60,26.478-79.726,48.951-79.726c24.839,0,49.774,24.718,49.774,49.557c0,35.474-50.387,45.443-79.387,48.355V186h119V266z"
			/>
	</g>
	<path display="inline" fill="#0AE50A" d="M256,204.679c-49.475,0-89.582,40.107-89.582,89.582s40.107,89.582,89.582,89.582
		s89.582-40.107,89.582-89.582S305.475,204.679,256,204.679z M313,328h-18v-35.847c0-8.048-1.179-13.496-3.18-16.345
		c-2-2.849-5.091-4.274-9.092-4.274c-3.045,0-5.82,0.87-8.234,2.611c-2.416,1.74-4.385,4.143-5.558,7.21
		c-1.174,3.068-1.937,7.993-1.937,14.78V328h-18v-34.217c0-6.351-0.289-10.951-1.226-13.8c-0.938-2.849-2.254-4.969-4.129-6.363
		c-1.875-1.392-4.098-2.088-6.757-2.088c-2.965,0-5.635,0.881-8.055,2.643s-4.033,4.232-5.231,7.407
		c-1.199,3.176-1.602,8.179-1.602,15.008V328h-18v-71h18v8.334c3-3.349,6.245-5.851,9.968-7.504c3.721-1.653,7.689-2.48,12.085-2.48
		c4.439,0,8.399,1.088,11.969,3.263c3.57,2.176,6.419,5.351,8.596,9.527c2.829-4.176,6.289-7.351,10.403-9.527
		c4.114-2.175,8.603-3.263,13.48-3.263c5.048,0,9.484,1.175,13.318,3.524c3.829,2.349,6.788,5.416,8.463,9.2
		c1.679,3.785,2.719,9.941,2.719,18.467V328z"/>
</g>
<g display="none">
	<path display="inline" fill="#FFFFFF" d="M368.82,118.109c0-17.579-20.027-37.607-37.607-37.607
		c-19.292,0-32.833,28.108-36.579,73.549C328.814,150.085,368.82,138.773,368.82,118.109z"/>
	<path display="inline" fill="#0AE50A" d="M142.976,316.89c0,62.422,50.603,113.024,113.024,113.024s113.024-50.603,113.024-113.024
		S318.422,203.866,256,203.866S142.976,254.469,142.976,316.89z M266.845,283.933c3.569-5.269,7.949-9.274,13.14-12.02
		c5.19-2.744,10.862-4.116,17.014-4.116c6.368,0,11.97,1.482,16.806,4.446c4.831,2.964,8.108,6.833,10.221,11.608
		c2.118,4.776,2.974,12.543,2.974,23.299V360h-22v-45.77c0-10.154-1.385-17.028-3.909-20.623c-2.524-3.595-6.372-5.393-11.419-5.393
		c-3.842,0-7.317,1.098-10.363,3.294c-3.048,2.195-5.459,5.227-6.939,9.096c-1.481,3.871-2.37,10.085-2.37,18.648V360h-22v-43.712
		c0-8.013-0.78-13.817-1.962-17.411c-1.183-3.595-3.051-6.27-5.417-8.028c-2.365-1.756-5.274-2.634-8.63-2.634
		c-3.741,0-7.162,1.112-10.215,3.334c-3.053,2.222-5.165,5.339-6.677,9.345C213.585,304.9,213,311.212,213,319.828V360h-23v-90h23
		v10.393c3-4.226,7.931-7.382,12.628-9.468c4.695-2.086,9.726-3.129,15.273-3.129c5.601,0,10.61,1.373,15.114,4.116
		C260.519,274.658,264.097,278.664,266.845,283.933z"/>
	<path display="inline" fill="#FFFFFF" d="M180.787,80.503c-17.58,0-37.607,20.027-37.607,37.607
		c0,20.812,40.006,32.074,74.185,35.99C213.642,108.61,200.079,80.503,180.787,80.503z"/>
	<path display="inline" fill="#FFFFFF" d="M-8-9v530h528V-9H-8z M444,281h-39.126l0.102,176H107.024l0.008-176H68V181h150v-1.729
		c-36-3.673-100.088-16.404-100.088-61.161c0-31.339,31.437-62.535,62.776-62.535c28.353,0,56.703,25.426,61.858,100.426h0.918
		h25.071h0.917c5.155-75,33.407-100.426,61.76-100.426c31.339,0,62.874,31.268,62.874,62.607c0,44.757-64.088,57.417-100.088,61.09
		V181h150V281z"/>
</g>
</svg>
